# xmcd
#
# Track frame offsets:
#	150
#	14094
#	26181
#	37346
#	49044
#	62766
#	77759
#	91258
#	105051
#	118475
#	134436
#	146618
#	159690
#	175906
#	188983
#	204359
#	218208
#	232827
#	246768
#	261382
#
# Disc length: 3704 seconds
#
# Revision: 0
# Processed by: cddbd v1.5.1PL2 Copyright (c) Steve Scherf et al.
# Submitted via: dBpowerAMP V4.0
#
DISCID=250e7614
DTITLE=Olavi virta - etelän yössä
DYEAR=1900
DGENRE=Blues
TTITLE0=tiikerihai
TTITLE1=mambo italiano 
TTITLE2=keinu kanssani
TTITLE3=skokiaan
TTITLE4=kun tuuli huokaa
TTITLE5=saavuthan jälleen roomaan
TTITLE6=mandolino mandolino
TTITLE7=itämaista rakkautta
TTITLE8=istanbul
TTITLE9=ukulele-mary
TTITLE10=perfidia
TTITLE11=mallorca
TTITLE12=laulu kahdesta pennistä
TTITLE13=etelänmeren laulu
TTITLE14=begin the beguine
TTITLE15=kaksi ruusua
TTITLE16=etelän yössä
TTITLE17=sinitaivas
TTITLE18=oh el baion
TTITLE19=huojuvain palmujen alla
EXTD=
EXTT0=
EXTT1=
EXTT2=
EXTT3=
EXTT4=
EXTT5=
EXTT6=
EXTT7=
EXTT8=
EXTT9=
EXTT10=
EXTT11=
EXTT12=
EXTT13=
EXTT14=
EXTT15=
EXTT16=
EXTT17=
EXTT18=
EXTT19=
PLAYORDER=
